<mxfile host="app.diagrams.net" modified="2023-06-04T16:58:29.322Z" agent="Mozilla/5.0 (Windows NT 10.0; Win64; x64) AppleWebKit/537.36 (KHTML, like Gecko) Chrome/113.0.0.0 Safari/537.36" etag="rOd26Gv2NIlXG0XYMEkn" version="21.3.7" type="device">
  <diagram name="Страница 1" id="rQyhKzC-WmJIjC_GSnBo">
    <mxGraphModel dx="934" dy="515" grid="1" gridSize="10" guides="1" tooltips="1" connect="1" arrows="1" fold="1" page="1" pageScale="1" pageWidth="827" pageHeight="1169" math="0" shadow="0">
      <root>
        <mxCell id="0" />
        <mxCell id="1" parent="0" />
        <mxCell id="IGO-7-c8ut0EXzt9_BZH-1" value="" style="rounded=0;whiteSpace=wrap;html=1;" parent="1" vertex="1">
          <mxGeometry x="14" y="10" width="800" height="380" as="geometry" />
        </mxCell>
        <mxCell id="IGO-7-c8ut0EXzt9_BZH-3" value="&lt;p style=&quot;border-color: var(--border-color); margin: 4px 0px 0px; text-align: center;&quot;&gt;&lt;b style=&quot;border-color: var(--border-color);&quot;&gt;employee&lt;/b&gt;&lt;/p&gt;&lt;hr style=&quot;border-color: var(--border-color);&quot; size=&quot;1&quot;&gt;&lt;p style=&quot;border-color: var(--border-color); margin: 0px 0px 0px 4px; line-height: 1.6;&quot;&gt;personal_number: bigint&lt;br style=&quot;border-color: var(--border-color);&quot;&gt;last_name: text&lt;br style=&quot;border-color: var(--border-color);&quot;&gt;first_name: text&lt;br style=&quot;border-color: var(--border-color);&quot;&gt;middle_name: text&lt;br style=&quot;border-color: var(--border-color);&quot;&gt;position: text&lt;br style=&quot;border-color: var(--border-color);&quot;&gt;login: text&lt;br style=&quot;border-color: var(--border-color);&quot;&gt;email: text&lt;br style=&quot;border-color: var(--border-color);&quot;&gt;status: text&lt;/p&gt;&lt;p style=&quot;border-color: var(--border-color); margin: 0px 0px 0px 4px; line-height: 1.6;&quot;&gt;password: text&lt;br style=&quot;border-color: var(--border-color);&quot;&gt;created_at: timestamp&lt;br style=&quot;border-color: var(--border-color);&quot;&gt;updated_at: timestamp&lt;/p&gt;&lt;hr style=&quot;border-color: var(--border-color);&quot; size=&quot;1&quot;&gt;&lt;p style=&quot;border-color: var(--border-color); margin: 0px 0px 0px 4px; line-height: 1.6;&quot;&gt;id: bigint&lt;/p&gt;" style="verticalAlign=top;align=left;overflow=fill;fontSize=14;fontFamily=Helvetica;html=1;rounded=0;shadow=0;comic=0;labelBackgroundColor=none;strokeWidth=1;" parent="1" vertex="1">
          <mxGeometry x="331" y="31" width="165" height="329" as="geometry" />
        </mxCell>
      </root>
    </mxGraphModel>
  </diagram>
</mxfile>
